<svg xmlns="http://www.w3.org/2000/svg" width="19.422" height="21.463" viewBox="0 0 19.422 21.463">
  <g id="bell" transform="translate(-1486.518 -55.122)">
    <path id="Path_140" data-name="Path 140" d="M219.79,141.378a3.154,3.154,0,0,1-6.264,0h-4.285a2.041,2.041,0,1,1,0-4.081.187.187,0,0,0,.185-.186v-4.452a7.237,7.237,0,0,1,5.009-6.886v-.349a2.226,2.226,0,1,1,4.453,0v.349a7.238,7.238,0,0,1,5.009,6.886v4.452a.184.184,0,0,0,.185.186,2.041,2.041,0,1,1,0,4.081Zm-1.125,0h-4.014a2.041,2.041,0,0,0,4.014,0Zm-3.538-14.648a6.123,6.123,0,0,0-4.591,5.929v4.452a1.3,1.3,0,0,1-1.3,1.3.928.928,0,1,0,0,1.855h14.834a.928.928,0,1,0,0-1.855,1.3,1.3,0,0,1-1.3-1.3v-4.452a6.124,6.124,0,0,0-4.591-5.929l-.418-.107v-1.2a1.113,1.113,0,1,0-2.226,0v1.2Z" transform="translate(1279.571 -67.825)" fill="#363636" stroke="#363636" stroke-width="0.5"/>
  </g>
</svg>
