<svg xmlns="http://www.w3.org/2000/svg" width="14.932" height="14.878" viewBox="0 0 14.932 14.878">
  <g id="noun-export-1406983" transform="translate(-124.681 -56.359)">
    <path id="Path_2000" data-name="Path 2000" d="M250.052,57.083v-.127l-.036-.072-.036-.054-.09-.108h-.018l-.108-.09-.054-.036-.072-.036h-4.464a.723.723,0,0,0,0,1.446h2.422l-8.152,8.1a.729.729,0,0,0,1.03,1.03l8.152-8.152V61.4a.723.723,0,0,0,1.446,0V57.246a.721.721,0,0,0-.018-.163Z" transform="translate(-110.657)" fill="#00a160" stroke="#fff" stroke-width="0.4"/>
    <path id="Path_2001" data-name="Path 2001" d="M127.05,153.95h7.374a2.169,2.169,0,0,0,2.169-2.169v-3.452a.723.723,0,0,0-1.446,0v3.452a.723.723,0,0,1-.723.723H127.05a.723.723,0,0,1-.723-.723v-7.374a.723.723,0,0,1,.723-.723H130.5a.723.723,0,0,0,0-1.446H127.05a2.169,2.169,0,0,0-2.169,2.169v7.374a2.169,2.169,0,0,0,2.169,2.169Z" transform="translate(0 -82.913)" fill="#00a160" stroke="#fff" stroke-width="0.4"/>
  </g>
</svg>
