<svg xmlns="http://www.w3.org/2000/svg" width="14.687" height="14.688" viewBox="0 0 14.687 14.688">
  <g id="Iconly_Light-Outline_Filter-2" data-name="Iconly/Light-Outline/Filter-2" transform="translate(-2 -2)">
    <g id="Filter-2" transform="translate(2 2)">
      <path id="Fill-1" d="M5.1,7.23c.014.012.026.023.039.037A4.424,4.424,0,0,1,6.4,10.374v3l1.684-.917a.418.418,0,0,0,.215-.37V10.365A4.415,4.415,0,0,1,9.549,7.27L13.193,3.4a1.348,1.348,0,0,0,.365-.927v-.7a.625.625,0,0,0-.613-.633H1.744a.625.625,0,0,0-.614.633v.7a1.344,1.344,0,0,0,.365.926Zm1.034,7.458a.868.868,0,0,1-.864-.87V10.374a3.3,3.3,0,0,0-.9-2.277.486.486,0,0,1-.05-.047L.673,4.169A2.473,2.473,0,0,1,0,2.468v-.7A1.756,1.756,0,0,1,1.744,0h11.2a1.756,1.756,0,0,1,1.743,1.763v.7a2.48,2.48,0,0,1-.671,1.7L10.366,8.051a3.3,3.3,0,0,0-.935,2.315v1.723a1.549,1.549,0,0,1-.8,1.362l-2.08,1.133a.863.863,0,0,1-.411.105Z" transform="translate(0 0)" fill="#00a160" fill-rule="evenodd"/>
    </g>
  </g>
</svg>
