<svg id="Icon" xmlns="http://www.w3.org/2000/svg" width="284.724" height="144.62" viewBox="0 0 284.724 144.62">
  <path id="Path_27" data-name="Path 27" d="M174.732,60.82c0-.013,0-.025,0-.038A53.78,53.78,0,0,0,158.1,23.689,56.409,56.409,0,0,0,118.825,7.608c-.033,0-.068-.005-.1-.005L118.7,7.6l0,0h-.005l0,0-.005,0,0,0v0h-.013v0l-.015,0a32.1,32.1,0,0,0-4.2.213C91.276,9.6,72.7,25.9,67.043,48.16c-.005.01-.018.01-.023.02a.262.262,0,0,0-.008.108,57.956,57.956,0,0,0-1.8,14.195,55.071,55.071,0,0,0,15.06,38.5,51.836,51.836,0,0,0,37.768,15.808A58.616,58.616,0,0,0,157.77,101a52.566,52.566,0,0,0,17.047-38.513c0-.559-.068-1.106-.085-1.663M159.591,98.21a50.2,50.2,0,0,1-10.3,2.834,56.283,56.283,0,0,0,9.188-9.737A50.292,50.292,0,0,0,163.09,83.6a29.319,29.319,0,0,0,8.323-4.656A53.032,53.032,0,0,1,159.591,98.21m-11.373,3.033c-.76.135-1.543.263-2.343.389a51.142,51.142,0,0,0,12.191-16.352q2.16-.632,4.1-1.349a51.888,51.888,0,0,1-13.947,17.313M70.707,56.726a56.6,56.6,0,0,1,1.136-6.273q2.005.666,4.437,1.309c-.01.053-.023.105-.033.158a62.553,62.553,0,0,0-.263,18.123q-2.713-.865-5.268-1.876a51.81,51.81,0,0,1-.01-11.441m3.725-24.248c1.018.492,2.14.971,3.354,1.43a58.619,58.619,0,0,0-6.391,15.74,34.658,34.658,0,0,1-3.7-1.492,54.433,54.433,0,0,1,6.742-15.677m3.956,1.651c.936.341,1.926.672,2.96.991A65.158,65.158,0,0,0,76.4,51.155c-1.61-.426-3.085-.863-4.41-1.3a57.857,57.857,0,0,1,6.4-15.722M103.81,10.44c.083.1.193.186.283.281-.3.138-.584.3-.878.444A51.119,51.119,0,0,0,87.137,21.953c-.9-.364-1.781-.74-2.624-1.141a51.6,51.6,0,0,1,19.274-10.437c.01.02.005.045.023.065M151.74,19.2c-.82.5-1.678.983-2.586,1.437A51.205,51.205,0,0,0,131.432,10.1c.1-.09.2-.171.291-.261A55.672,55.672,0,0,1,151.74,19.2m19.244,25.432a50.535,50.535,0,0,1-5.125,2.882,57.406,57.406,0,0,0-7.608-16.37,35.126,35.126,0,0,0,3.587-2.456,53.713,53.713,0,0,1,9.146,15.943m-5.7,3.181c-1.362.652-2.782,1.244-4.227,1.809a64.912,64.912,0,0,0-6.381-16.55c1.046-.5,2.069-1.026,3.04-1.593a56.8,56.8,0,0,1,7.568,16.334m-3.349,19.307c-1.944.8-3.971,1.548-6.065,2.237a66.241,66.241,0,0,0,.258-7.457,69.574,69.574,0,0,0-.923-9.627c1.841-.544,3.642-1.134,5.383-1.791.293,1.329.569,2.669.78,4.028a58.552,58.552,0,0,1,.567,12.61m-85.071-15.1c.005-.033.015-.068.02-.1q2.408.617,5.16,1.2c-.231,1.678-.416,3.369-.522,5.069a67.67,67.67,0,0,0,.569,13.6q-2.833-.707-5.526-1.555a62.814,62.814,0,0,1,.3-18.206m78.361,17.554c-3.181,1.021-6.514,1.911-9.961,2.671.171-1.783.306-3.589.364-5.441a86.707,86.707,0,0,0-.492-12.161c3.248-.589,6.416-1.312,9.467-2.187a69.186,69.186,0,0,1,.9,9.462,65.217,65.217,0,0,1-.276,7.656M82.64,53.235c2.779.567,5.777,1.094,8.967,1.56-.09,1.166-.176,2.335-.218,3.527a81.084,81.084,0,0,0,.936,15.517q-4.914-.768-9.569-1.9a67.089,67.089,0,0,1-.6-13.716c.105-1.708.276-3.364.487-4.987m62.368,13.55c-.063,1.909-.206,3.77-.386,5.609-3.7.8-7.535,1.44-11.441,1.929.384-4.191.564-8.526.529-12.956-.013-1.741-.073-3.464-.15-5.177,3.71-.326,7.382-.8,10.962-1.43a86.312,86.312,0,0,1,.487,12.025M92.013,58.342c.043-1.166.125-2.318.216-3.462,3.65.517,7.518.953,11.533,1.277A146.633,146.633,0,0,0,105.024,75.2c-4.084-.253-8.117-.672-12.053-1.264a80.564,80.564,0,0,1-.958-15.589m41.069,3.03c.035,4.457-.15,8.812-.539,13.026-4.219.512-8.518.843-12.843.993-.1-6.1-.238-12.409-.389-18.595,4.528,0,9.1-.178,13.62-.557.08,1.7.138,3.406.15,5.132M104.357,56.2c4.635.361,9.447.574,14.328.589.151,6.2.291,12.514.391,18.622-4.487.14-8.99.078-13.442-.181A146.544,146.544,0,0,1,104.357,56.2m12.216-40.683c.291.01.579.018.87.018.143,0,.281-.018.421-.02q-.023,4.5.113,11.443c-3.206.04-6.414-.073-9.579-.336A53.265,53.265,0,0,1,113.45,15.16a22.668,22.668,0,0,0,3.123.359m-2.752-.928a36.345,36.345,0,0,1,4.3-5.606c-.148,1.184-.226,3.161-.251,5.89-.424.01-.845.033-1.274.018a22.18,22.18,0,0,1-2.774-.3m3.487,13c.226,0,.454-.015.68-.018.068,3.5.158,7.447.263,11.807-4.269.028-8.521-.145-12.647-.487A82.3,82.3,0,0,1,108.21,27.18c2.987.263,6.038.406,9.1.406m.023,12.4c.311,0,.625-.01.936-.013.055,2.25.113,4.58.176,7.049.075,2.99.153,6.058.228,9.158-4.874-.015-9.677-.226-14.305-.587a116.086,116.086,0,0,1,1.151-16.109c3.858.321,7.824.5,11.814.5M114.32,76.1q2.382,0,4.766-.078c.075,4.746.125,9.351.135,13.663-3.65.068-7.322.045-10.964-.063-1.043-4.445-1.906-9.073-2.548-13.8,2.859.163,5.729.273,8.611.273m.489,14.225q2.209,0,4.415-.043c.008,5.049-.043,9.67-.171,13.608-2.182.063-4.36.1-6.5.105A119.806,119.806,0,0,1,108.4,90.236q3.194.09,6.409.093m4.217,14.3a60.1,60.1,0,0,1-1.069,11.074,76.047,76.047,0,0,1-5.145-10.982q3.082-.011,6.213-.093m.62-.023c1.846-.055,3.695-.133,5.533-.228a50.217,50.217,0,0,1-6.444,10.736,73.542,73.542,0,0,0,.911-10.508m.025-.73c.133-3.948.183-8.566.176-13.6,3.449-.078,6.865-.241,10.224-.477a81.243,81.243,0,0,1-4.548,13.839q-2.916.154-5.852.241m.176-14.2c-.01-4.317-.06-8.927-.135-13.673,4.3-.148,8.571-.477,12.768-.981A110.577,110.577,0,0,1,130.2,89.2c-3.4.238-6.863.391-10.355.467M119.3,56.185c-.075-3.105-.153-6.178-.228-9.173-.06-2.373-.12-4.728-.178-7.041,4.071-.045,8.145-.276,12.13-.717A126.3,126.3,0,0,1,132.9,55.638c-4.518.379-9.083.544-13.605.547m-.419-16.814c-.1-4.156-.193-8.145-.263-11.817,3.158-.04,6.309-.223,9.406-.562a101.277,101.277,0,0,1,2.892,11.666c-3.953.439-8,.667-12.035.712M118.6,26.96c-.08-4.435-.128-8.36-.115-11.473a21.243,21.243,0,0,0,4.442-.67,67.991,67.991,0,0,1,4.876,11.541c-3.013.341-6.1.544-9.2.6m-.11-12.093a47.272,47.272,0,0,1,.293-6.306,41.4,41.4,0,0,1,3.818,5.691,21.112,21.112,0,0,1-4.111.615m1.437-5.85a36.806,36.806,0,0,1,5.734,4.161,19.445,19.445,0,0,1-2.443.9,43.112,43.112,0,0,0-3.291-5.057m-6.778,5.463a21.767,21.767,0,0,1-2.5-.65,42.315,42.315,0,0,1,6.4-4.613,37.259,37.259,0,0,0-3.9,5.263m-.356.572a54.394,54.394,0,0,0-5.017,11.511c-2.313-.206-4.6-.482-6.828-.853a48.793,48.793,0,0,1,9.183-11.4,22.927,22.927,0,0,0,2.661.742m-5.2,12.073a82.948,82.948,0,0,0-2.586,11.714c-3.251-.283-6.419-.667-9.439-1.144A60.174,60.174,0,0,1,100.667,26.2c2.252.379,4.56.7,6.931.923m-2.674,12.319a116.882,116.882,0,0,0-1.154,16.109c-4-.326-7.869-.758-11.5-1.277a74.248,74.248,0,0,1,3.105-15.991c3.058.482,6.261.873,9.552,1.159M105.1,75.79c.637,4.731,1.492,9.366,2.531,13.821-3.61-.118-7.179-.329-10.668-.62a74.252,74.252,0,0,1-3.888-14.443c3.928.587,7.952.993,12.025,1.242m2.671,14.421A120.374,120.374,0,0,0,111.89,104c-2.313,0-4.583-.03-6.79-.1a62.437,62.437,0,0,1-7.876-14.28c3.449.281,6.978.479,10.545.589m4.247,14.513h.138A77.67,77.67,0,0,0,117.1,115.46a48.544,48.544,0,0,1-11.441-10.826c2.072.058,4.194.09,6.351.09m13.869-.381c2.491-.138,4.959-.309,7.372-.517a39.775,39.775,0,0,1-14.072,11.729,51.248,51.248,0,0,0,6.7-11.212m.344-.75a82.836,82.836,0,0,0,4.495-13.846c3.577-.263,7.076-.61,10.437-1.053a53.8,53.8,0,0,1-7.347,14.368c-2.478.216-5.019.391-7.585.532m4.623-14.438a111.787,111.787,0,0,0,2.265-14.22c3.9-.487,7.731-1.119,11.436-1.906a72.269,72.269,0,0,1-3.176,15.053c-3.384.451-6.913.808-10.525,1.074m2.676-33.572a126.717,126.717,0,0,0-1.884-16.4c3.151-.366,6.236-.868,9.213-1.518a82.656,82.656,0,0,1,3.6,16.492c-3.569.632-7.234,1.1-10.934,1.427m-1.992-16.992a102.3,102.3,0,0,0-2.89-11.679c2.385-.278,4.733-.642,7.011-1.111a62.991,62.991,0,0,1,3.058,6.12c.717,1.666,1.355,3.4,1.954,5.165-2.952.642-6.01,1.141-9.133,1.505m-3.093-12.3a69.142,69.142,0,0,0-4.886-11.641,19.817,19.817,0,0,0,2.624-1.008,48.142,48.142,0,0,1,9.12,11.521c-2.222.454-4.5.848-6.858,1.129M126.8,13.359a19.208,19.208,0,0,0,2.034-1.166A44.873,44.873,0,0,1,142.05,23.455c-1.939.61-3.988,1.126-6.105,1.578A49.141,49.141,0,0,0,126.8,13.359m-.507-.457a38.1,38.1,0,0,0-5.35-4.016,39.94,39.94,0,0,1,7.249,2.967,18.146,18.146,0,0,1-1.9,1.048m-16.319.695a18.44,18.44,0,0,1-2.255-.976,40.485,40.485,0,0,1,8.714-3.77,43.141,43.141,0,0,0-6.459,4.746m-.5.482a49.669,49.669,0,0,0-9.183,11.528c-2.052-.361-4.031-.818-5.962-1.319A47.112,47.112,0,0,1,107.1,12.981a18.6,18.6,0,0,0,2.373,1.1M100,26.094a60.966,60.966,0,0,0-5.062,11.5c-2.671-.434-5.23-.936-7.625-1.5a53.644,53.644,0,0,1,6.63-11.305q2.908.749,6.058,1.3M94.75,38.18a75.1,75.1,0,0,0-3.105,16.006c-3.171-.464-6.168-.988-8.93-1.553a62.969,62.969,0,0,1,4.357-15.961c2.413.564,4.989,1.069,7.678,1.508M92.422,74.443a74.88,74.88,0,0,0,3.843,14.493c-3.073-.266-6.06-.61-8.952-1.011A60.753,60.753,0,0,1,82.86,72.6c3.09.74,6.293,1.344,9.562,1.846m4.1,15.13a63.581,63.581,0,0,0,7.766,14.305c-2.177-.073-4.294-.176-6.3-.314A51.814,51.814,0,0,1,87.626,88.578c2.882.391,5.842.735,8.9,1m8.333,15.035a49.927,49.927,0,0,0,10.56,10.455,53.043,53.043,0,0,1-16.661-10.751c1.957.13,4,.228,6.1.3m4.731,8.378a61.5,61.5,0,0,1-14.654-8.977c.921.088,1.876.163,2.844.236a52.2,52.2,0,0,0,11.809,8.742m12.233,1.876A41.155,41.155,0,0,0,134.1,103.748c2.18-.2,4.309-.419,6.366-.67a48.79,48.79,0,0,1-16.934,11.18c-.557.211-1.139.4-1.706.6m12.805-11.875A54.889,54.889,0,0,0,141.857,88.6c3.183-.434,6.221-.961,9.1-1.56a50.285,50.285,0,0,1-9.74,15.238c-2.122.266-4.324.5-6.592.707m7.45-15.01a73.321,73.321,0,0,0,3.12-15.1c3.444-.753,6.783-1.628,9.966-2.639A60.871,60.871,0,0,1,151.241,86.4c-2.887.612-5.965,1.136-9.163,1.578m3-33.938a83.4,83.4,0,0,0-3.61-16.51,70.159,70.159,0,0,0,7.894-2.258,66.584,66.584,0,0,1,5.122,16.573c-3.03.873-6.176,1.605-9.406,2.195m-3.8-17.084c-.61-1.8-1.259-3.577-1.992-5.283a64.41,64.41,0,0,0-2.985-5.992,64.019,64.019,0,0,0,6.2-1.688q1.456,1.855,2.792,3.893a59.077,59.077,0,0,1,3.788,6.835,68.937,68.937,0,0,1-7.8,2.235m4.54-9.411q-1.279-1.968-2.676-3.765,1.731-.579,3.356-1.257a59.187,59.187,0,0,1,7.327,10.267c-1.332.62-2.709,1.2-4.144,1.726a59.676,59.676,0,0,0-3.863-6.971m-3.135-4.307a45.641,45.641,0,0,0-13.294-11.456c.434-.311.858-.632,1.264-.976a44.708,44.708,0,0,1,15.411,11.207c-1.084.439-2.215.843-3.381,1.224m-12.66-12.715c-.406.334-.83.635-1.259.931a40.447,40.447,0,0,0-6.627-2.872q2.31.3,4.58.828a33.908,33.908,0,0,1,3.306,1.114M106.986,12.2a12.447,12.447,0,0,1-1.728-1.207,45.036,45.036,0,0,1,9.858-2.416,41.064,41.064,0,0,0-8.13,3.622m-2.355-.943a12.5,12.5,0,0,0,1.763,1.317A45.846,45.846,0,0,0,93.7,24.12q-2.051-.553-3.976-1.217c.517-.625,1.018-1.264,1.558-1.859a41.7,41.7,0,0,1,11.646-9.08c.564-.243,1.129-.489,1.7-.71M93.325,24.617c-.351.472-.72.911-1.059,1.4A57.359,57.359,0,0,0,86.8,35.97c-1.6-.386-3.135-.8-4.58-1.227A56.759,56.759,0,0,1,89.309,23.4q1.926.658,4.016,1.217M86.543,36.542a65.935,65.935,0,0,0-4.4,15.968c-1.824-.381-3.544-.78-5.14-1.191A64.582,64.582,0,0,1,81.95,35.307c1.447.436,2.985.845,4.593,1.234M82.2,72.454A61.673,61.673,0,0,0,86.563,87.82c-1.708-.246-3.379-.514-5-.808a54.577,54.577,0,0,1-4.894-16.1c1.8.554,3.645,1.074,5.533,1.538m4.676,16.021A52.689,52.689,0,0,0,97,103.49q-1.543-.117-2.995-.263A51.077,51.077,0,0,1,81.9,87.685c1.618.286,3.273.549,4.977.79m-4.53,1.272a52.207,52.207,0,0,0,10.8,13.4q-1.452-.158-2.789-.341A51.631,51.631,0,0,1,76.421,86.581c1.56.356,3.168.687,4.839.991.361.725.69,1.47,1.086,2.175m11.722,14.172a60.582,60.582,0,0,0,11.712,7.889,71.751,71.751,0,0,1-14.335-8.187q1.268.162,2.624.3m47.388-.968c.8-.1,1.58-.208,2.353-.319a64.371,64.371,0,0,1-10.076,6.89,47.808,47.808,0,0,0,7.723-6.572m.758-.793a51.17,51.17,0,0,0,9.507-15.281c1.916-.414,3.77-.855,5.508-1.344a50.872,50.872,0,0,1-12.5,16.274c-.823.123-1.658.238-2.513.351m9.775-15.928a61.609,61.609,0,0,0,3.835-16.2q3.145-1.023,6.07-2.22a49.307,49.307,0,0,1-4.312,17c-1.763.512-3.635.981-5.594,1.412m3.105-34.553a67.143,67.143,0,0,0-5.132-16.613c1.437-.527,2.819-1.106,4.156-1.728a64.442,64.442,0,0,1,6.351,16.515c-1.743.665-3.532,1.279-5.375,1.826m-.7-19.149a59.747,59.747,0,0,0-7.3-10.259c.655-.286,1.332-.552,1.959-.86.79.725,1.588,1.437,2.34,2.217a56.96,56.96,0,0,1,5.99,7.327c-.956.559-1.962,1.079-2.992,1.575m-7.736-10.771A47.6,47.6,0,0,0,134.4,11.935a50.964,50.964,0,0,1,14.142,9c-.6.288-1.249.554-1.891.825M130.732,9.89c-.883-.288-1.763-.582-2.659-.815.978.166,1.949.366,2.915.584-.083.078-.171.153-.256.231M96.89,15.067a44.8,44.8,0,0,0-6.068,5.556c-.6.657-1.161,1.367-1.731,2.062-.441-.158-.906-.3-1.334-.462a52.121,52.121,0,0,1,9.133-7.156M88.677,23.18a57.6,57.6,0,0,0-7.064,11.373q-1.513-.47-2.887-.968a57.806,57.806,0,0,1,7.555-9.943c.319-.334.665-.627.988-.951.449.173.941.324,1.407.489M76.068,70.731a55.588,55.588,0,0,0,4.851,16.161c-1.676-.314-3.309-.647-4.871-1.011A50.144,50.144,0,0,1,70.8,68.892c1.7.662,3.462,1.269,5.265,1.839M75.25,85.688c-1.783-.429-3.494-.89-5.1-1.39a56.059,56.059,0,0,1-4.119-17.473c1.3.62,2.661,1.2,4.048,1.756A48.744,48.744,0,0,0,75.25,85.688m.369.717a50.038,50.038,0,0,0,3.161,5.185,55.14,55.14,0,0,0,10.5,11.052A29.721,29.721,0,0,1,80.53,100.3c-.01-.008-.023,0-.033-.005A52.259,52.259,0,0,1,70.484,85.038c1.618.492,3.341.943,5.135,1.367M90.26,103.46c6.883,5.318,15.4,9.507,25.4,12.589a51.025,51.025,0,0,1-33.913-14.538,41.34,41.34,0,0,0,8.516,1.949m54.69-1c.755-.113,1.492-.236,2.217-.359a72.5,72.5,0,0,1-14.446,8.661,65.059,65.059,0,0,0,12.228-8.3m13.47-17.9a50.01,50.01,0,0,0,4.121-17c1.6-.665,3.11-1.38,4.588-2.12a50.257,50.257,0,0,1-4.6,17.737c-1.284.492-2.669.948-4.111,1.385m4.169-17.712a59.407,59.407,0,0,0-.6-12.431c-.218-1.407-.5-2.794-.808-4.169q2.186-.85,4.249-1.829a54.151,54.151,0,0,1,1.55,7.994,49.434,49.434,0,0,1,.2,8.313c-1.47.747-3.005,1.452-4.593,2.122m5.019-10.505a55.479,55.479,0,0,0-1.593-8.192,51.587,51.587,0,0,0,5.192-2.917A52,52,0,0,1,174.095,60.6a54.6,54.6,0,0,1-6.238,3.768,52,52,0,0,0-.248-8.027M161.455,28.2a35.441,35.441,0,0,1-3.539,2.426,57.614,57.614,0,0,0-6.07-7.432c-.715-.737-1.472-1.41-2.217-2.1.921-.472,1.826-.953,2.671-1.48a57.1,57.1,0,0,1,5.36,4.53q2.013,1.949,3.8,4.056M104.726,10.467c-.088-.09-.186-.176-.268-.266.855-.238,1.713-.474,2.589-.667-.783.276-1.553.6-2.32.933M84.014,21.278c.83.4,1.718.78,2.629,1.146-.266.268-.552.509-.815.785a58.416,58.416,0,0,0-7.706,10.159c-1.222-.459-2.345-.941-3.371-1.432a52.749,52.749,0,0,1,9.263-10.658m-16.475,27.5a36.081,36.081,0,0,0,3.707,1.482,56.3,56.3,0,0,0-1.161,6.4,52.913,52.913,0,0,0-.075,11.23c-1.372-.557-2.719-1.134-4.008-1.756-.075-1.209-.166-2.416-.166-3.645a57.329,57.329,0,0,1,1.7-13.708m89.8,51.765a58,58,0,0,1-36.913,15.507c11.125-3.414,20.423-8.142,27.813-14.127a61.389,61.389,0,0,0,10.3-2.621c-.406.409-.773.843-1.2,1.242m14.478-22.771a25.908,25.908,0,0,1-8.363,5.027,48.491,48.491,0,0,0,4.385-17.717,56.139,56.139,0,0,0,6.291-3.747c.008.386.058.765.058,1.151a50.643,50.643,0,0,1-2.37,15.286" transform="translate(98.359 11.456)" fill="#1d1d1b"/>
  <path id="Path_28" data-name="Path 28" d="M124.563,31.414c.329.329,0,.928.931.928,0,4.181,3.715,6.5,6.5,8.827.459.462.926,2.32,1.395,2.32a12.538,12.538,0,0,0,6.963-2.32c.928,3.712-1.856,6.5-3.715,9.75-1.395,2.787-5.11,4.179-7.43,6.5a5.889,5.889,0,0,0-1.859,3.253c.464,3.715,1.859,7.432.926,11.145-.926,1.859-4.179,2.323-6.035,4.179-.464,1.395,1.395,3.253.467,4.645-.931.467-2.789.931-2.789,1.859-.928,3.717-4.179,6.035-6.5,7.9s-5.109,0-7.9,1.392c-.462,0-.462-.928-1.392-.928,0-.928.462-1.856,0-2.325-1.395-4.181-2.323-8.355-4.181-13,0-.931-.931-1.859-.931-2.787a6.9,6.9,0,0,1,1.859-6.5c.464-1.395-.467-3.251-.467-4.645-.462-.928-1.856-1.856-1.856-2.787.464-.928-.464-1.395,0-1.854-3.248-1.4-1.856-5.115-.926-7.432,0-.467-.931-.931-1.395-1.4-.928.931-1.859.467-2.784.467,0-1.395-1.4-2.323-2.328-2.789-1.392,0-3.248.931-4.64,1.395a30.718,30.718,0,0,1-6.5-.464c-1.859,0-3.715-2.32-5.11-3.717-1.387-1.854-1.854-3.715-2.784-5.571-1.395-1.859,0-3.712,1.4-5.571.926-1.861,0-4.181.926-5.576,1.392-1.854,2.32-4.179,4.64-5.107,1.395-.467,3.717-.467,3.717-1.859a5.935,5.935,0,0,1,4.643-4.176c4.645-.467,10.683-1.4,14.865.459-.931,1.4-1.395,3.717.464,4.179s2.325,1.4,3.715,2.325h1.395c0,.464,0,.928.464.928,1.859,0,0-2.323,1.392-2.787,3.251-.467,6.5,4.184,9.288,1.395a1.707,1.707,0,0,0,1.395.464c1.392,3.251,1.856,6.966,4.179,9.288" transform="translate(107.857 21.889)" fill="#00a160"/>
  <path id="Path_29" data-name="Path 29" d="M100.547,46.559c-.657,1.312-.467,2.787-1.856,3.251l-.467.464c-.462,0-.462.464-.462.931H96.368c-.467-1.859-1.856-3.248-.931-5.11,1.392-1.392.931-3.251,1.392-4.645.933-2.32,4.648-2.32,5.576-5.571,1.395.926.928,2.787.928,4.179-.464,0-.928,0-.928.464.464,2.323-.928,4.181-1.859,6.038" transform="translate(143.484 54.117)" fill="#00a160"/>
  <path id="Path_30" data-name="Path 30" d="M60.068,37.238l-.3-1.365L66.3,34.456,67.309,39.1l-1.154.251-.712-3.283-1.472.321.622,2.875-1.156.248-.622-2.872Z" transform="translate(90.157 51.973)" fill="#1d1d1b"/>
  <path id="Path_31" data-name="Path 31" d="M63.494,38.356c1.778-.579,2.546.286,2.779,1s.123,1.871-1.658,2.448-2.549-.288-2.782-1-.12-1.869,1.661-2.448m-.434-1.327c-2.982.973-2.624,3.3-2.35,4.141s1.357,2.935,4.342,1.964,2.624-3.306,2.345-4.144-1.357-2.935-4.337-1.962" transform="translate(91.305 55.472)" fill="#1d1d1b"/>
  <path id="Path_32" data-name="Path 32" d="M69.088,42.96l.539,1.189L63.54,46.9l-.574-1.274,3.216-4.445-.005-.015-4.347,1.962L61.3,41.934l6.088-2.744.6,1.337-3.148,4.334.008.015Z" transform="translate(92.459 59.113)" fill="#1d1d1b"/>
  <path id="Path_33" data-name="Path 33" d="M67.983,43.314l.675,1.159c.3.514.642,1.4-1.064,2.4-.946.552-2.125.805-2.7-.178l-.685-1.171Zm-5.463,1.61,1.465,2.5c1.111,1.909,3.181,1.355,4.422.63,1.089-.642,2.511-2.009,1.37-3.948l-1.487-2.548Z" transform="translate(94.303 62.677)" fill="#1d1d1b"/>
  <path id="Path_34" data-name="Path 34" d="M65.9,46.989c-.293.223-.757.79-.04,1.778.389.532.948,1.031,1.523.617.419-.306.238-.8-.045-1.467l-.286-.675c-.431-1.023-.848-2.007.339-2.872.6-.436,1.9-.888,3.173.865,1.207,1.653.446,2.887-.211,3.376l-.788-1.081c.216-.206.725-.715.005-1.7-.311-.426-.84-.823-1.329-.469a.732.732,0,0,0-.15.983l.637,1.553c.356.868.549,1.763-.421,2.473-1.623,1.181-2.975-.371-3.316-.84-1.437-1.974-.549-3.135.123-3.625Z" transform="translate(96.871 66.329)" fill="#1d1d1b"/>
  <path id="Path_35" data-name="Path 35" d="M67.179,50.97l-1.023-1.059,6.454-2.94,1.119,1.156-3.158,6.339-1.054-1.086.69-1.264-1.718-1.771Zm2.4-1.166,1.181,1.224,1.322-2.433-.015-.015Z" transform="translate(99.787 70.851)" fill="#1d1d1b"/>
  <path id="Path_36" data-name="Path 36" d="M69.371,54.267l-1.059-.9,4.332-5.092,3.617,3.083-.765.9L72.938,50.08l-.981,1.144,2.24,1.909-.763.9-2.24-1.906Z" transform="translate(103.04 72.815)" fill="#1d1d1b"/>
  <path id="Path_37" data-name="Path 37" d="M73.444,52.872l1.021-1.47,1.425,1a.842.842,0,0,1,.306,1.277c-.379.544-.815.547-1.41.133Zm-3.263,2.283,1.121.783,1.5-2.142,1.181.825c.848.587.692.911.171,1.661a4.6,4.6,0,0,0-.652,1.191l1.269.88.1-.14c-.181-.263-.043-.464.514-1.264.715-1.023.589-1.362.276-1.871a1.6,1.6,0,0,0,1.758-.715,1.885,1.885,0,0,0-.645-2.754L74,49.676Z" transform="translate(105.858 74.929)" fill="#1d1d1b"/>
  <path id="Path_38" data-name="Path 38" d="M73.673,57.561l-1.2-.712,3.416-5.742,1.2.715Z" transform="translate(109.313 77.088)" fill="#1d1d1b"/>
  <path id="Path_39" data-name="Path 39" d="M78.9,55.054a1.36,1.36,0,0,0-.805-1.7c-.6-.3-1.681-.339-2.526,1.35-.539,1.074-.6,2.252.459,2.782a1.428,1.428,0,0,0,1.886-.464l1.247.625a2.78,2.78,0,0,1-3.7.906c-1.588-.793-2.19-2.438-1.156-4.5,1.043-2.087,2.782-2.554,4.322-1.778a2.651,2.651,0,0,1,1.523,3.4Z" transform="translate(111.299 78.323)" fill="#1d1d1b"/>
  <path id="Path_40" data-name="Path 40" d="M80.664,54.712l.018.008-.151,2.764-1.6-.6Zm-2.483,3.125,2.313.863-.083,1.442,1.417.532.143-7.081-1.507-.567-4.58,5.418,1.38.519Z" transform="translate(114.459 79.982)" fill="#1d1d1b"/>
  <rect id="Rectangle_2" data-name="Rectangle 2" width="6.68" height="1.397" transform="translate(197.351 140.915) rotate(-73.518)" fill="#1d1d1b"/>
  <path id="Path_41" data-name="Path 41" d="M85.267,54.788l1.274.273L85.129,61.6l-1.367-.3L82.1,56.067l-.018-.005-1,4.658-1.274-.273,1.412-6.532,1.435.309,1.613,5.107.015.005Z" transform="translate(120.38 81.323)" fill="#1d1d1b"/>
  <path id="Path_42" data-name="Path 42" d="M85.469,55.813l1.337.093c.6.04,1.523.261,1.39,2.227-.073,1.1-.534,2.215-1.666,2.137l-1.357-.093Zm-1.738,5.423,2.887.2c2.2.148,2.9-1.874,3.005-3.3.085-1.259-.248-3.208-2.5-3.361l-2.942-.2Z" transform="translate(126.297 82.313)" fill="#1d1d1b"/>
  <path id="Path_43" data-name="Path 43" d="M91.4,55.84l-3.542.108.043,1.4,3.251-.1.038,1.181-3.256.093.053,1.731,3.695-.108.038,1.179-5.067.15-.2-6.677,4.911-.145Z" transform="translate(130.396 82.446)" fill="#1d1d1b"/>
  <path id="Path_44" data-name="Path 44" d="M91.363,55.756l1.317-.221c.589-.1,1.545-.1,1.876,1.841.183,1.081,0,2.273-1.121,2.463L92.1,60.07Zm-.416,5.684,2.852-.489c2.175-.374,2.385-2.5,2.14-3.916-.211-1.249-.993-3.063-3.213-2.679l-2.907.5Z" transform="translate(135.478 81.91)" fill="#1d1d1b"/>
  <path id="Path_45" data-name="Path 45" d="M97.409,54.675l-3.419.948.376,1.352,3.14-.87.314,1.139-3.135.873.459,1.666,3.569-.988.316,1.139-4.886,1.355-1.786-6.439,4.733-1.312Z" transform="translate(139.308 80.752)" fill="#1d1d1b"/>
  <path id="Path_46" data-name="Path 46" d="M98.56,53.161l1.349-.524.286,7.054-1.242.477-4.505-5.423,1.4-.537,3.161,4.2.02-.005Z" transform="translate(142.463 79.395)" fill="#1d1d1b"/>
  <path id="Path_47" data-name="Path 47" d="M101.783,52.7l-3.171,1.59.63,1.254,2.915-1.46.529,1.056L99.774,56.6l.778,1.548,3.311-1.661.529,1.054-4.535,2.278-3-5.972,4.39-2.2Z" transform="translate(146.102 77.897)" fill="#1d1d1b"/>
  <path id="Path_48" data-name="Path 48" d="M103.064,55.774l2.819-1.758.642,1.026-4.006,2.5-3.537-5.666,1.186-.74Z" transform="translate(149.301 77.128)" fill="#1d1d1b"/>
  <path id="Path_49" data-name="Path 49" d="M103.191,53.835c-1.141-1.482-.587-2.5.01-2.96s1.721-.74,2.865.737.589,2.5-.008,2.957-1.721.742-2.867-.735m-1.1.853c1.921,2.481,3.993,1.36,4.688.818s2.308-2.268.389-4.743-3.988-1.357-4.688-.825-2.308,2.27-.389,4.751" transform="translate(152.617 74.234)" fill="#1d1d1b"/>
  <path id="Path_50" data-name="Path 50" d="M106.169,51.478l-1.354-1.42.8-.765c.627-.6,1.076-.652,1.525-.183a.911.911,0,0,1-.033,1.475Zm.8.835,1.161-1.109a2.051,2.051,0,0,0,.068-3.013,1.954,1.954,0,0,0-2.977-.115l-2.21,2.11,4.61,4.834,1.013-.963Z" transform="translate(155.371 71.562)" fill="#1d1d1b"/>
  <path id="Path_51" data-name="Path 51" d="M107.984,49.71,106.5,48.428l.725-.838c.562-.655,1.006-.755,1.5-.326a.907.907,0,0,1,.105,1.47Zm.873.758,1.049-1.214a2.048,2.048,0,0,0-.221-3.008,1.952,1.952,0,0,0-2.972.176l-2,2.308,5.052,4.37.916-1.056Z" transform="translate(157.95 68.847)" fill="#1d1d1b"/>
  <path id="Path_52" data-name="Path 52" d="M110.065,44.141l-2.052,2.89,1.146.815,1.886-2.659.958.68-1.881,2.659,1.412,1,2.145-3.02.961.685-2.935,4.136-5.448-3.863,2.842-4.006Z" transform="translate(160.275 65.551)" fill="#1d1d1b"/>
  <path id="Path_53" data-name="Path 53" d="M116.6,44.128l-.635,1.136-4.876-2.712-.01.018,4.269,3.8-.665,1.2-5.471-1.653-.01.018,4.879,2.714-.632,1.139-5.839-3.248.991-1.781,5.192,1.5.01-.013-4.028-3.6.986-1.763Z" transform="translate(162.317 61.662)" fill="#1d1d1b"/>
  <path id="Path_54" data-name="Path 54" d="M112.036,39.138l-1.377,3.268,1.3.544,1.264-3,1.089.459-1.267,3,1.593.677,1.44-3.416,1.091.462L115.2,45.8l-6.156-2.594,1.906-4.533Z" transform="translate(164.474 58.338)" fill="#1d1d1b"/>
  <path id="Path_55" data-name="Path 55" d="M111.156,37.479l.379-1.247,6.389,1.957-.409,1.334-5.358,1.209,0,.023,4.56,1.395-.384,1.244-6.389-1.959.434-1.4,5.222-1.174.005-.018Z" transform="translate(165.829 54.652)" fill="#1d1d1b"/>
  <path id="Path_56" data-name="Path 56" d="M117.855,37.205l-.278,1.37-5.385-1.094-.4,1.982-1.159-.236,1.084-5.325,1.156.231-.4,1.984Z" transform="translate(166.868 51.136)" fill="#1d1d1b"/>
  <path id="Path_57" data-name="Path 57" d="M64.621,15.485l.01-.018,2.709.579L66.5,17.53Zm2.7,2.935,1.209-2.145,1.412.3.747-1.322-6.978-1.232-.793,1.4,4.653,5.358L68.3,19.5Z" transform="translate(94.911 21.152)" fill="#1d1d1b"/>
  <path id="Path_58" data-name="Path 58" d="M70.314,17.735l-.8,1.141-5.466-3.84,2.732-3.89.971.68-1.934,2.744,1.234.868,1.693-2.4.966.677-1.691,2.406Z" transform="translate(96.605 16.811)" fill="#1d1d1b"/>
  <path id="Path_59" data-name="Path 59" d="M68.648,13.565,67.294,12.4l1.136-1.314a.841.841,0,0,1,1.3-.168c.5.431.459.863-.015,1.412Zm1.936,3.482.9-1.038L69.5,14.3l.943-1.091c.68-.785.983-.6,1.671,0a4.527,4.527,0,0,0,1.119.768l1.011-1.169-.138-.115c-.278.153-.459-.005-1.2-.645-.941-.813-1.294-.722-1.839-.464a1.588,1.588,0,0,0-.529-1.821,1.881,1.881,0,0,0-2.8.359l-2.21,2.561Z" transform="translate(98.833 14.022)" fill="#1d1d1b"/>
  <path id="Path_60" data-name="Path 60" d="M73.126,12.874l-.991.986L67.414,9.136l.983-.991Z" transform="translate(101.685 12.286)" fill="#1d1d1b"/>
  <path id="Path_61" data-name="Path 61" d="M72.422,8.166a1.356,1.356,0,0,0-1.871.088c-.507.441-.966,1.422.263,2.855.79.908,1.854,1.417,2.749.647a1.43,1.43,0,0,0,.3-1.919l1.061-.911a2.782,2.782,0,0,1-.589,3.763c-1.349,1.161-3.1,1.081-4.605-.667-1.525-1.768-1.279-3.552.025-4.676a2.657,2.657,0,0,1,3.727-.09Z" transform="translate(103.59 9.866)" fill="#1d1d1b"/>
  <path id="Path_62" data-name="Path 62" d="M72.705,6.662l.015-.01,2.18,1.7-1.4.966Zm1.141,3.82,2.034-1.4,1.131.9,1.249-.863L72.532,4.949l-1.327.913,1.831,6.855,1.209-.833Z" transform="translate(107.403 7.465)" fill="#1d1d1b"/>
  <path id="Path_63" data-name="Path 63" d="M76.688,3.686l1.146-.62L81.01,8.949l-1.229.66-4.66-2.9-.02.013,2.268,4.191-1.149.62-3.173-5.88,1.292-.7L78.883,7.79l.02-.008Z" transform="translate(110.18 4.625)" fill="#1d1d1b"/>
  <path id="Path_64" data-name="Path 64" d="M78.445,3.6,79.7,3.148c.562-.2,1.5-.369,2.167,1.487.371,1.033.4,2.24-.672,2.621l-1.279.462Zm.577,5.664,2.724-.976c2.074-.747,1.911-2.882,1.427-4.232-.429-1.191-1.513-2.837-3.635-2.077l-2.774,1Z" transform="translate(115.788 2.697)" fill="#1d1d1b"/>
  <path id="Path_65" data-name="Path 65" d="M84.632,1.989l-3.444.843.334,1.362,3.163-.773.283,1.149L81.8,5.345l.411,1.681,3.6-.88.278,1.149L81.163,8.5,79.58,2.006,84.353.84Z" transform="translate(120.035 1.267)" fill="#1d1d1b"/>
  <path id="Path_66" data-name="Path 66" d="M86.422.6,87.859.4,86.532,7.329l-1.319.186L82.065,1.206,83.542,1l2.122,4.814h.015Z" transform="translate(123.784 0.601)" fill="#1d1d1b"/>
  <path id="Path_67" data-name="Path 67" d="M89.884,1.458l-3.547.148.063,1.4,3.251-.135L89.7,4.054l-3.256.138.073,1.731,3.7-.156.048,1.179-5.064.213L84.92.485,89.831.277Z" transform="translate(128.089 0.417)" fill="#1d1d1b"/>
  <path id="Path_68" data-name="Path 68" d="M88.928,5.822l3.316.168L92.186,7.2l-4.713-.238L87.809.286,89.2.359Z" transform="translate(131.941 0.432)" fill="#1d1d1b"/>
  <path id="Path_69" data-name="Path 69" d="M91.218,3.769c.283-1.849,1.4-2.145,2.145-2.032s1.726.737,1.44,2.586-1.4,2.145-2.147,2.032-1.726-.74-1.437-2.586m-1.382-.211c-.474,3.1,1.763,3.83,2.641,3.963s3.228.113,3.7-2.987S94.416.7,93.546.571s-3.233-.113-3.71,2.987" transform="translate(135.407 0.798)" fill="#1d1d1b"/>
  <path id="Path_70" data-name="Path 70" d="M94.8,4.347l.507-1.9,1.069.288c.838.223,1.116.579.951,1.207a.913.913,0,0,1-1.277.74Zm-.3,1.114,1.545.411a2.042,2.042,0,0,0,2.606-1.51,1.952,1.952,0,0,0-1.452-2.6L94.255.973,92.537,7.43l1.35.359Z" transform="translate(139.579 1.468)" fill="#1d1d1b"/>
  <path id="Path_71" data-name="Path 71" d="M100.918,10.281,99.7,9.809l2.029-5.2-.015-.008L98.525,9.345,97.25,8.851l.9-5.644-.018-.01L96.1,8.4l-1.212-.474L97.313,1.7l1.9.742L98.427,7.79l.015.008,3.025-4.472,1.884.735Z" transform="translate(143.121 2.567)" fill="#1d1d1b"/>
  <path id="Path_72" data-name="Path 72" d="M104.668,6.332l-3.138-1.65-.652,1.244,2.882,1.515-.552,1.046-2.882-1.515L99.521,8.5l3.276,1.726-.552,1.048L97.758,8.911,100.871,3l4.35,2.285Z" transform="translate(147.454 4.527)" fill="#1d1d1b"/>
  <path id="Path_73" data-name="Path 73" d="M107.064,6.595l1.084.722-3.707,5.561-1.164-.778.379-5.473-.018-.01L101,10.58,99.91,9.858,103.617,4.3l1.222.815-.371,5.343.015.01Z" transform="translate(150.7 6.481)" fill="#1d1d1b"/>
  <path id="Path_74" data-name="Path 74" d="M103.658,13.17l-1.079-.885,3.489-4.254-1.56-1.279.75-.913,4.2,3.446-.752.913-1.563-1.279Z" transform="translate(154.728 8.805)" fill="#1d1d1b"/>
  <path id="Path_75" data-name="Path 75" d="M105.573,13.981l-.956-1.021L109.5,8.4l3.248,3.474-.86.808-2.3-2.453-1.1,1.028L110.5,13.4l-.863.808-2.012-2.15Z" transform="translate(157.801 12.663)" fill="#1d1d1b"/>
  <path id="Path_76" data-name="Path 76" d="M110.8,17.176c-1.4,1.069-2.641.682-3.665-.655a2.856,2.856,0,0,1-.642-2.177,2.429,2.429,0,0,1,.966-1.4l3.522-2.689.863,1.131L108.4,14.02a1.166,1.166,0,0,0-.339,1.758,1.152,1.152,0,0,0,1.834.3l3.494-2.674.865,1.131Z" transform="translate(160.577 15.468)" fill="#1d1d1b"/>
  <path id="Path_77" data-name="Path 77" d="M115.607,16.174l.677,1.111-5.714,3.467-.722-1.194,2.661-4.8-.013-.015-4.074,2.468-.677-1.114,5.717-3.464.763,1.259-2.609,4.678.013.015Z" transform="translate(162.52 19.053)" fill="#1d1d1b"/>
  <path id="Path_78" data-name="Path 78" d="M114.713,16.95l.567,1.214c.251.542.507,1.46-1.282,2.293-.993.464-2.195.6-2.676-.426L110.75,18.8Zm-5.586,1.1,1.224,2.621c.931,2,3.043,1.638,4.342,1.033,1.146-.534,2.686-1.766,1.736-3.808l-1.247-2.671Z" transform="translate(164.603 22.963)" fill="#1d1d1b"/>
  <path id="Path_79" data-name="Path 79" d="M72.311,144.62a72.31,72.31,0,1,1,72.306-72.309A72.39,72.39,0,0,1,72.311,144.62m0-143.993A71.683,71.683,0,1,0,143.99,72.311,71.765,71.765,0,0,0,72.311.627" transform="translate(0)" fill="#1d1d1b"/>
  <path id="Path_80" data-name="Path 80" d="M64.6,124.117a59.506,59.506,0,1,1,59.506-59.5,59.572,59.572,0,0,1-59.506,59.5m0-118.385A58.879,58.879,0,1,0,123.48,64.613,58.946,58.946,0,0,0,64.6,5.732" transform="translate(7.685 7.7)" fill="#1d1d1b"/>
  <path id="Path_81" data-name="Path 81" d="M81.937,31.927c.444.441,0,1.257,1.257,1.257,0,5.661,5.034,8.8,8.8,11.952.632.627,1.259,3.143,1.889,3.143a16.939,16.939,0,0,0,9.431-3.143c1.259,5.029-2.516,8.8-5.029,13.2C96.4,62.115,91.371,64,88.228,67.147c-1.259,1.257-2.516,3.145-2.516,4.4.627,5.032,2.516,10.064,1.257,15.1-1.257,2.513-5.661,3.145-8.18,5.659-.627,1.889,1.889,4.4.632,6.288-1.259.63-3.773,1.257-3.773,2.518-1.259,5.032-5.664,8.175-8.807,10.691s-6.918,0-10.691,1.886c-.627,0-.627-1.257-1.886-1.257,0-1.257.627-2.516,0-3.146-1.886-5.661-3.145-11.32-5.661-17.611,0-1.257-1.257-2.516-1.257-3.773a9.339,9.339,0,0,1,2.516-8.8c.63-1.884-.63-4.4-.63-6.288-.63-1.259-2.516-2.513-2.516-3.773.63-1.259-.63-1.886,0-2.518-4.4-1.886-2.516-6.918-1.257-10.064,0-.627-1.259-1.259-1.886-1.886-1.259,1.259-2.518.627-3.778.627,0-1.884-1.884-3.143-3.143-3.77-1.889,0-4.4,1.257-6.291,1.886a41.5,41.5,0,0,1-8.8-.63c-2.513,0-5.029-3.143-6.918-5.029-1.884-2.513-2.513-5.032-3.773-7.548-1.886-2.516,0-5.032,1.889-7.548,1.257-2.516,0-5.664,1.257-7.548,1.886-2.516,3.145-5.661,6.288-6.918,1.889-.63,5.032-.63,5.032-2.516.63-3.143,4.4-5.661,6.286-5.661,6.293-.627,14.468-1.884,20.127.632-1.254,1.886-1.884,5.029.632,5.656s3.145,1.889,5.032,3.145H59.3c0,.632,0,1.259.627,1.259,2.518,0,0-3.145,1.886-3.775,4.4-.63,8.8,5.661,12.579,1.889a2.314,2.314,0,0,0,1.886.627c1.886,4.4,2.513,9.436,5.661,12.582" transform="translate(15.214 13.632)" fill="#00a160"/>
  <path id="Path_82" data-name="Path 82" d="M49.412,52.432c-.89,1.783-.627,3.775-2.516,4.41l-.63.627c-.63,0-.63.627-.63,1.257H43.751c-.627-2.518-2.513-4.4-1.254-6.918,1.886-1.889,1.254-4.4,1.886-6.291,1.254-3.143,6.288-3.143,7.545-7.548,1.886,1.259,1.259,3.775,1.259,5.659-.63,0-1.259,0-1.259.63.63,3.145-1.257,5.661-2.516,8.175" transform="translate(63.461 57.271)" fill="#00a160"/>
  <path id="Path_83" data-name="Path 83" d="M5.225,29.861l.133-1.771c.038-.5.3-.986.883-.943.677.053.943.467.893,1.141L7.006,30Zm2.834,1.555L8.27,28.6c.1-1.367-.108-1.743-.449-2.15a1.941,1.941,0,0,0-1.329-.682,1.562,1.562,0,0,0-1.691.913,1.336,1.336,0,0,0-1.3-.921c-.69-.05-1.741.293-1.861,1.924L1.4,30.922ZM2.646,29.671l.118-1.6c.048-.627.246-1.006.79-.963.529.038.71.489.67,1.038l-.12,1.63Z" transform="translate(2.107 38.845)" fill="#1d1d1b"/>
  <path id="Path_84" data-name="Path 84" d="M8.2,27.882l-.266,1.445L1.791,25.782,2.082,24.2l6.993-1.114L8.8,24.575l-1.43.173-.441,2.426ZM5.86,26.6l.306-1.673-2.749.341-.005.015Z" transform="translate(2.702 34.818)" fill="#1d1d1b"/>
  <path id="Path_85" data-name="Path 85" d="M3.4,21.194l.369-1.249,6.4,1.9-.4,1.337-5.34,1.259-.008.02L9,25.816l-.371,1.252-6.4-1.906.419-1.407,5.215-1.219.005-.018Z" transform="translate(3.355 30.083)" fill="#1d1d1b"/>
  <path id="Path_86" data-name="Path 86" d="M8.35,21.153l.845-.369a1.635,1.635,0,0,1-.13.76c-.3.695-1.136,1.49-2.86.76s-1.738-1.889-1.44-2.581,1.136-1.487,2.855-.76a3,3,0,0,1,1.2.843l-.885.394Zm2.656-2.3-.918.4a3.777,3.777,0,0,0-1.924-1.573c-2.885-1.224-4.144.773-4.49,1.585s-.9,3.1,1.987,4.329,4.144-.773,4.492-1.583a3.5,3.5,0,0,0,.256-1.753l1-.431Z" transform="translate(5.112 26.079)" fill="#1d1d1b"/>
  <path id="Path_87" data-name="Path 87" d="M10.826,16.548c1.53.865,1.666,2.157.84,3.622a2.855,2.855,0,0,1-1.746,1.452,2.423,2.423,0,0,1-1.666-.339L4.4,19.109l.7-1.239L8.872,20a1.172,1.172,0,0,0,1.753-.379,1.157,1.157,0,0,0-.452-1.8l-3.835-2.16.7-1.242Z" transform="translate(6.629 21.74)" fill="#1d1d1b"/>
  <path id="Path_88" data-name="Path 88" d="M9.7,12.81,7.649,15.7l1.144.813,1.886-2.656.963.68L9.756,17.2l1.415,1,2.137-3.023.966.685L11.343,20,5.89,16.136,8.732,12.13Z" transform="translate(8.885 18.297)" fill="#1d1d1b"/>
  <path id="Path_89" data-name="Path 89" d="M10.387,11.271l.015-.01,2.483,1.222-1.171,1.234Zm1.906,3.509L13.994,13l1.292.637,1.043-1.1-6.462-2.9L8.759,10.8l3.2,6.331,1.016-1.061Z" transform="translate(13.212 14.53)" fill="#1d1d1b"/>
  <path id="Path_90" data-name="Path 90" d="M15.731,14.558l-1.059.911-4.36-5.059,3.6-3.108.775.9-2.548,2.192.986,1.144,2.23-1.921.768.9-2.227,1.916Z" transform="translate(15.555 11.013)" fill="#1d1d1b"/>
  <path id="Path_91" data-name="Path 91" d="M15.061,9.981,14.035,8.519l1.425-1a.838.838,0,0,1,1.3.158c.381.539.236.948-.359,1.367Zm1.028,3.845,1.119-.783-1.5-2.142,1.176-.828c.845-.592,1.1-.339,1.62.409a4.444,4.444,0,0,0,.9,1.018l1.264-.885-.1-.145c-.306.078-.446-.12-1.008-.921-.715-1.018-1.076-1.013-1.663-.9a1.592,1.592,0,0,0-.07-1.894,1.881,1.881,0,0,0-2.807-.339L12.252,8.358Z" transform="translate(18.481 8.972)" fill="#1d1d1b"/>
  <rect id="Rectangle_3" data-name="Rectangle 3" width="1.395" height="6.681" transform="matrix(0.858, -0.513, 0.513, 0.858, 36.63, 13.365)" fill="#1d1d1b"/>
  <path id="Path_92" data-name="Path 92" d="M20.057,5.792a1.359,1.359,0,0,0-1.841-.374c-.6.3-1.282,1.139-.439,2.829.537,1.074,1.442,1.829,2.5,1.3a1.42,1.42,0,0,0,.76-1.781l1.252-.622a2.781,2.781,0,0,1-1.5,3.5c-1.59.793-3.266.288-4.3-1.776-1.041-2.089-.364-3.76,1.176-4.528a2.655,2.655,0,0,1,3.637.83Z" transform="translate(24.123 5.977)" fill="#1d1d1b"/>
  <path id="Path_93" data-name="Path 93" d="M20.342,4.606,20.36,4.6,22.05,6.791l-1.6.589ZM20.5,8.592l2.315-.853.875,1.144,1.425-.527L20.6,2.9l-1.51.559.078,7.094,1.377-.509Z" transform="translate(28.791 4.379)" fill="#1d1d1b"/>
  <rect id="Rectangle_4" data-name="Rectangle 4" width="1.399" height="6.681" transform="translate(52.868 6.153) rotate(-15.932)" fill="#1d1d1b"/>
  <path id="Path_94" data-name="Path 94" d="M26.345,1.928l1.279-.261,1.342,6.544L27.6,8.49,23.97,4.372l-.02.005.958,4.668L23.631,9.3,22.289,2.759l1.44-.293,3.532,4.023.02,0Z" transform="translate(33.62 2.515)" fill="#1d1d1b"/>
  <path id="Path_95" data-name="Path 95" d="M30.155,2.539,26.628,2.9l.138,1.4,3.241-.334.12,1.176-3.241.331.178,1.721,3.682-.371L30.865,8l-5.047.509-.672-6.647,4.886-.494Z" transform="translate(37.929 2.059)" fill="#1d1d1b"/>
  <path id="Path_96" data-name="Path 96" d="M30.5,2.514l1.337.055c.594.028,1.528.223,1.445,2.195-.043,1.1-.474,2.222-1.61,2.177l-1.352-.058ZM28.9,7.98l2.892.123c2.2.088,2.857-1.952,2.917-3.381.053-1.264-.331-3.2-2.584-3.293L29.177,1.3Z" transform="translate(43.59 1.968)" fill="#1d1d1b"/>
  <path id="Path_97" data-name="Path 97" d="M37.2,3.345l-3.509-.507-.2,1.39,3.221.464-.168,1.171L33.318,5.4l-.246,1.716,3.662.529-.166,1.171-5.019-.73.958-6.61,4.859.7Z" transform="translate(47.589 2.223)" fill="#1d1d1b"/>
  <path id="Path_98" data-name="Path 98" d="M37.869,3.656l1.287.384c.569.171,1.422.589.863,2.483-.314,1.048-1.008,2.037-2.094,1.713l-1.3-.386ZM34.982,8.565l2.772.823C39.868,10.02,41,8.2,41.411,6.829c.361-1.214.462-3.183-1.7-3.825l-2.827-.843Z" transform="translate(52.766 3.26)" fill="#1d1d1b"/>
  <path id="Path_99" data-name="Path 99" d="M44.17,6.02,40.9,4.663l-.539,1.3,3.01,1.244L42.911,8.3,39.9,7.051l-.662,1.6,3.421,1.415-.451,1.094L37.528,9.218l2.556-6.173,4.538,1.881Z" transform="translate(56.606 4.594)" fill="#1d1d1b"/>
  <path id="Path_100" data-name="Path 100" d="M45.452,6.112l1.282.685-5.162,4.814-1.174-.63L41.577,4.03l1.317.707L41.76,9.875l.02.01Z" transform="translate(60.935 6.079)" fill="#1d1d1b"/>
  <path id="Path_101" data-name="Path 101" d="M49.1,9.182,46.162,7.2l-.788,1.166,2.7,1.816-.662.981-2.7-1.816-.968,1.435,3.075,2.067-.662.983L41.956,11l3.732-5.543L49.762,8.2Z" transform="translate(63.284 8.235)" fill="#1d1d1b"/>
  <path id="Path_102" data-name="Path 102" d="M45.835,12.132,48.4,14.239l-.763.933-3.65-2.99,4.237-5.167L49.3,7.9Z" transform="translate(66.351 10.581)" fill="#1d1d1b"/>
  <path id="Path_103" data-name="Path 103" d="M48.315,11.215c1.329-1.314,2.406-.888,2.937-.354s.946,1.615-.384,2.935-2.406.888-2.937.351-.946-1.615.384-2.932m-.981-.991c-2.23,2.2-.863,4.126-.243,4.756s2.533,2.014,4.761-.2.863-4.126.238-4.756-2.526-2.012-4.756.2" transform="translate(69.545 13.607)" fill="#1d1d1b"/>
  <path id="Path_104" data-name="Path 104" d="M51.392,13.976l1.535-1.224.69.865c.539.677.554,1.129.045,1.538a.907.907,0,0,1-1.46-.166Zm-.9.72,1,1.254a2.045,2.045,0,0,0,2.992.336,1.951,1.951,0,0,0,.381-2.957l-1.9-2.385-5.225,4.166.87,1.091Z" transform="translate(72.002 16.506)" fill="#1d1d1b"/>
  <path id="Path_105" data-name="Path 105" d="M53.008,15.977l1.65-1.066.6.931c.472.725.441,1.179-.105,1.533a.909.909,0,0,1-1.44-.311Zm-.971.627.873,1.342a2.043,2.043,0,0,0,2.945.635,1.955,1.955,0,0,0,.67-2.9l-1.658-2.564L49.26,16.739l.753,1.171Z" transform="translate(74.302 19.778)" fill="#1d1d1b"/>
  <path id="Path_106" data-name="Path 106" d="M57.716,20.353,56.1,17.2l-1.249.642,1.485,2.9-1.048.539-1.487-2.9-1.54.79,1.691,3.3L52.894,23l-2.313-4.513,5.942-3.05,2.245,4.372Z" transform="translate(76.296 23.291)" fill="#1d1d1b"/>
  <path id="Path_107" data-name="Path 107" d="M53.981,26.332l-.462-1.219,5.225-1.972-.008-.018-5.661.805-.484-1.282,4.791-3.11,0-.018-5.225,1.969L51.7,20.269l6.248-2.355.72,1.906-4.5,2.992,0,.018,5.35-.745.712,1.889Z" transform="translate(77.976 27.02)" fill="#1d1d1b"/>
  <path id="Path_108" data-name="Path 108" d="M59.276,26.11l-.883-3.436-1.357.351.808,3.153-1.144.3-.81-3.156-1.678.426.923,3.589-1.146.293-1.262-4.914L59.2,21.053l1.219,4.763Z" transform="translate(79.531 31.756)" fill="#1d1d1b"/>
  <path id="Path_109" data-name="Path 109" d="M60.524,27.728l.2,1.289-6.61.993L53.9,28.628l4.309-3.4-.005-.02-4.711.71L53.3,24.627l6.607-1,.218,1.452L55.921,28.4l0,.018Z" transform="translate(80.4 35.645)" fill="#1d1d1b"/>
  <path id="Path_110" data-name="Path 110" d="M53.764,30.037l-.073-1.395,5.491-.291-.108-2.014,1.181-.063.288,5.426-1.181.06-.108-2.014Z" transform="translate(80.987 39.631)" fill="#1d1d1b"/>
  <path id="Path_111" data-name="Path 111" d="M11.072,43.344l.01.01L9.436,45.36l-.87-1.334Zm-3.6.986,1.264,1.931L7.879,47.3l.78,1.186,4.016-5.27-.825-1.262L5.4,43.522l.758,1.149Z" transform="translate(8.142 63.282)" fill="#1d1d1b"/>
  <path id="Path_112" data-name="Path 112" d="M7.8,48.3,6.99,47.272l4.9-3.883,2.759,3.487-.863.687L11.834,45.1l-1.106.873,1.711,2.16-.863.687L9.865,46.66Z" transform="translate(10.544 65.446)" fill="#1d1d1b"/>
  <path id="Path_113" data-name="Path 113" d="M11.832,47.8l1.217-1.149,1.119,1.181a.787.787,0,0,1,.035,1.227c-.446.426-.845.349-1.314-.143ZM8.416,49.29l.88.926,1.776-1.686.928.981c.662.7.462.966-.161,1.553a4.24,4.24,0,0,0-.818.973l1,1.046.12-.113c-.118-.276.048-.431.712-1.059.843-.808.793-1.139.6-1.666a1.487,1.487,0,0,0,1.743-.329,1.757,1.757,0,0,0-.073-2.641l-2.175-2.293Z" transform="translate(12.694 67.851)" fill="#1d1d1b"/>
  <path id="Path_114" data-name="Path 114" d="M11.179,52.183l-.961-.883,4.237-4.6.961.888Z" transform="translate(15.413 70.44)" fill="#1d1d1b"/>
  <path id="Path_115" data-name="Path 115" d="M16.289,50.938a1.277,1.277,0,0,0-.4-1.711c-.489-.391-1.472-.64-2.581.735-.7.875-.991,1.941-.128,2.631a1.334,1.334,0,0,0,1.816-.045l1.018.815a2.608,2.608,0,0,1-3.564.1c-1.3-1.043-1.523-2.666-.168-4.352s3.048-1.773,4.307-.77a2.49,2.49,0,0,1,.717,3.416Z" transform="translate(17.143 71.929)" fill="#1d1d1b"/>
  <path id="Path_116" data-name="Path 116" d="M18.1,50.811l.015.01-.707,2.493-1.334-.87ZM15.2,53.154l1.929,1.264-.371,1.3,1.189.78,1.583-6.436-1.259-.825-5.3,4.008,1.154.75Z" transform="translate(19.565 74.261)" fill="#1d1d1b"/>
  <path id="Path_117" data-name="Path 117" d="M21.693,51.948l1.081.569-2.9,5.536-1.154-.61-.191-5.13-.018-.008-2.067,3.948L15.36,55.69l2.9-5.541,1.222.642.178,5.007.015.01Z" transform="translate(23.168 75.643)" fill="#1d1d1b"/>
  <path id="Path_118" data-name="Path 118" d="M21.667,53.084l1.176.426c.524.191,1.3.63.677,2.365-.354.966-1.051,1.851-2.047,1.49l-1.2-.429ZM18.7,57.516l2.548.918c1.939.7,3.1-.936,3.552-2.2.4-1.111.6-2.947-1.38-3.66l-2.6-.941Z" transform="translate(28.214 77.883)" fill="#1d1d1b"/>
  <path id="Path_119" data-name="Path 119" d="M26.956,54.651l-3.213-.828L23.414,55.1l2.955.758-.278,1.071-2.952-.76-.4,1.57,3.359.865-.278,1.071-4.6-1.186,1.56-6.053,4.45,1.146Z" transform="translate(32.006 79.089)" fill="#1d1d1b"/>
  <path id="Path_120" data-name="Path 120" d="M27.881,53.6l1.342.218-3.1,5.829-1.227-.2L23.817,52.94l1.385.226.562,4.889.015,0Z" transform="translate(35.925 79.853)" fill="#1d1d1b"/>
  <path id="Path_121" data-name="Path 121" d="M31,54.742,27.694,54.5,27.6,55.815l3.035.218-.078,1.1-3.04-.221L27.4,58.534l3.454.248-.073,1.1-4.738-.339.449-6.236,4.585.329Z" transform="translate(39.288 80.414)" fill="#1d1d1b"/>
  <path id="Path_122" data-name="Path 122" d="M29.821,58.558l3.108-.04.015,1.134-4.417.055-.078-6.251,1.307-.015Z" transform="translate(42.912 80.609)" fill="#1d1d1b"/>
  <path id="Path_123" data-name="Path 123" d="M31.828,56.695c-.188-1.738.755-2.278,1.46-2.35s1.733.253,1.916,1.994-.758,2.278-1.457,2.35-1.733-.251-1.919-1.994m-1.3.138c.309,2.92,2.511,3.045,3.334,2.96S36.814,59.12,36.5,56.2s-2.511-3.043-3.334-2.955-2.95.67-2.641,3.587" transform="translate(46.002 80.287)" fill="#1d1d1b"/>
  <path id="Path_124" data-name="Path 124" d="M34.955,56.079l-.371-1.8L35.6,54.07c.793-.163,1.179.018,1.3.615a.845.845,0,0,1-.753,1.151Zm.216,1.059,1.467-.3a1.917,1.917,0,0,0,1.55-2.358,1.828,1.828,0,0,0-2.305-1.568l-2.8.574,1.264,6.123,1.279-.261Z" transform="translate(49.903 79.729)" fill="#1d1d1b"/>
  <path id="Path_125" data-name="Path 125" d="M42.9,57.9l-1.166.366-1.568-4.987-.015.01.457,5.33L39.389,59,36.73,54.36l-.015.005,1.568,4.982-1.161.369L35.24,53.753l1.821-.572,2.559,4.362.02-.005L39.223,52.5l1.8-.569Z" transform="translate(53.155 78.336)" fill="#1d1d1b"/>
  <path id="Path_126" data-name="Path 126" d="M42.581,52.068l-3.045,1.309.522,1.209,2.8-1.207.436,1.018-2.8,1.2.642,1.49,3.183-1.377.436,1.018L40.4,58.613l-2.473-5.747,4.219-1.816Z" transform="translate(57.205 77.002)" fill="#1d1d1b"/>
  <path id="Path_127" data-name="Path 127" d="M43.347,50.5l1.069-.582,3,5.481-1.146.627L41.894,53.34l-.018.008,2.142,3.908-1.069.587-3-5.483,1.207-.662,4.267,2.629.015-.01Z" transform="translate(60.256 75.288)" fill="#1d1d1b"/>
  <path id="Path_128" data-name="Path 128" d="M48.043,54.919l-1.084.73-2.867-4.272-1.57,1.049-.617-.918,4.224-2.832.615.918-1.568,1.051Z" transform="translate(63.207 73.421)" fill="#1d1d1b"/>
  <path id="Path_129" data-name="Path 129" d="M47.76,51.34l1.254-1.094a.806.806,0,0,1,1.2-.05.854.854,0,0,1-.15,1.349L48.859,52.6Zm.865,2.895,1.992-1.741c.963-.84,1.076-1.232,1.119-1.728a1.821,1.821,0,0,0-.444-1.324,1.453,1.453,0,0,0-1.726-.5,1.246,1.246,0,0,0-.261-1.47,1.645,1.645,0,0,0-2.5.058l-2.29,2Zm-2.458-4.718,1.126-.986c.446-.389.828-.514,1.166-.125.324.374.148.793-.241,1.131l-1.154,1.008Z" transform="translate(67.14 70.785)" fill="#1d1d1b"/>
  <path id="Path_130" data-name="Path 130" d="M48.327,46.945l.01-.013,2.333,1.134-1.094,1.159Zm1.8,3.276,1.58-1.681,1.212.589.976-1.031-6.06-2.686-1.033,1.1,3.02,5.91.943-1Z" transform="translate(70.59 68.498)" fill="#1d1d1b"/>
  <path id="Path_131" data-name="Path 131" d="M50.329,43.957l.745-.966,4.941,3.833-.8,1.028-5.087-.71-.01.01,3.522,2.732-.742.966-4.944-3.83.843-1.091,4.962.707.01-.015Z" transform="translate(72.331 64.846)" fill="#1d1d1b"/>
  <path id="Path_132" data-name="Path 132" d="M55.444,47.582l-.695,1.1-5.3-3.329.7-1.1L52.3,45.6l-.878-3.374.9-1.427.808,3.524,4.56-.319L56.8,45.432l-3.354.171.208.853Z" transform="translate(74.594 61.544)" fill="#1d1d1b"/>
</svg>
