<svg xmlns="http://www.w3.org/2000/svg" width="14.032" height="14.032" viewBox="0 0 14.032 14.032">
  <g id="logout" transform="translate(0.625 0.625)">
    <path id="Path_137" data-name="Path 137" d="M8.761,17.907H5.92a2.048,2.048,0,0,1-2.045-2.045V5.92A2.048,2.048,0,0,1,5.92,3.875h2.84a.625.625,0,0,1,0,1.25H5.92a.8.8,0,0,0-.8.8v9.941a.8.8,0,0,0,.8.8h2.84a.625.625,0,0,1,0,1.25Z" transform="translate(-4.5 -4.5)" fill="#363636"/>
    <path id="Path_138" data-name="Path 138" d="M24,18.226a.625.625,0,0,1-.442-1.067l3.109-3.109-3.109-3.109a.625.625,0,1,1,.884-.884l3.55,3.55a.625.625,0,0,1,0,.884l-3.55,3.55A.623.623,0,0,1,24,18.226Z" transform="translate(-14.769 -7.66)" fill="#363636"/>
    <path id="Path_139" data-name="Path 139" d="M22.021,18.625H13.5a.625.625,0,0,1,0-1.25h8.521a.625.625,0,0,1,0,1.25Z" transform="translate(-9.239 -11.609)" fill="#363636"/>
  </g>
</svg>
