<svg xmlns="http://www.w3.org/2000/svg" width="11.409" height="12.677" viewBox="0 0 11.409 12.677">
  <path id="Icon_material-date-range" data-name="Icon material-date-range" d="M8.3,8.7H7.035V9.972H8.3Zm2.535,0H9.571V9.972h1.268Zm2.535,0H12.106V9.972h1.268Zm1.268-4.437h-.634V3H12.74V4.268H7.669V3H6.4V4.268H5.768A1.262,1.262,0,0,0,4.506,5.535L4.5,14.409a1.267,1.267,0,0,0,1.268,1.268h8.874a1.271,1.271,0,0,0,1.268-1.268V5.535A1.271,1.271,0,0,0,14.641,4.268Zm0,10.141H5.768V7.437h8.874Z" transform="translate(-4.5 -3)" fill="#b5b5b5"/>
</svg>
